<svg width="95" height="28" viewBox="0 0 95 28" fill="none" xmlns="http://www.w3.org/2000/svg">
<path fill-rule="evenodd" clip-rule="evenodd" d="M36.3437 8.9375V8.93757L36.3273 8.9375C35.3138 8.9375 34.4922 9.74064 34.4922 10.7314C34.4922 11.7221 35.3138 12.5252 36.3273 12.5252L36.3437 12.5252V12.5258H48.4671V12.5231C49.4196 12.4766 50.1776 11.6922 50.1776 10.7314C50.1776 9.77053 49.4196 8.98613 48.4671 8.93968V8.9375H48.3777H36.3437Z" fill="#F4F4F4"/>
<path fill-rule="evenodd" clip-rule="evenodd" d="M36.1353 20.3143C36.2005 20.3143 36.2648 20.3102 36.3281 20.3023V20.3149H48.4515V20.3118C49.3826 20.2624 50.1226 19.4793 50.1226 18.5204C50.1226 17.5616 49.3826 16.7784 48.4515 16.729V16.7266H48.358H36.3281V16.7386C36.2648 16.7306 36.2005 16.7266 36.1353 16.7266C35.2192 16.7266 34.4766 17.5297 34.4766 18.5204C34.4766 19.5112 35.2192 20.3143 36.1353 20.3143Z" fill="#F8990B"/>
<path d="M3.12363 2.36267C3.12363 2.58449 3.07232 2.78644 2.96968 2.96853C2.86705 3.1473 2.71476 3.28966 2.51281 3.39561C2.31417 3.50155 2.07249 3.55452 1.78777 3.55452H1.35076V4.67188H0.248301V1.15593H1.78777C2.21816 1.15593 2.54757 1.26518 2.77601 1.48369C3.00776 1.70219 3.12363 1.99519 3.12363 2.36267ZM1.66362 2.68546C1.89206 2.68546 2.00627 2.57787 2.00627 2.36267C2.00627 2.14748 1.89206 2.03988 1.66362 2.03988H1.35076V2.68546H1.66362ZM9.93411 4.67188L9.27363 3.4105H9.26866V4.67188H8.1662V1.15593H9.80499C10.0897 1.15593 10.333 1.20724 10.535 1.30987C10.7369 1.4092 10.8876 1.54659 10.9869 1.72206C11.0895 1.89421 11.1409 2.08954 11.1409 2.30805C11.1409 2.5431 11.0746 2.75168 10.9422 2.93377C10.8131 3.11585 10.626 3.24663 10.3811 3.32608L11.1458 4.67188H9.93411ZM9.26866 2.67553H9.70567C9.81161 2.67553 9.89107 2.65236 9.94404 2.60601C9.99701 2.55635 10.0235 2.4802 10.0235 2.37757C10.0235 2.28487 9.99536 2.21204 9.93907 2.15907C9.8861 2.10609 9.8083 2.07961 9.70567 2.07961H9.26866V2.67553ZM17.8992 4.70664C17.5682 4.70664 17.2636 4.62884 16.9855 4.47323C16.7107 4.31763 16.4922 4.10244 16.33 3.82765C16.1677 3.55286 16.0866 3.24331 16.0866 2.899C16.0866 2.55469 16.1677 2.24514 16.33 1.97036C16.4922 1.69557 16.7107 1.48203 16.9855 1.32974C17.2636 1.17414 17.5682 1.09634 17.8992 1.09634C18.2303 1.09634 18.5332 1.17414 18.808 1.32974C19.0828 1.48203 19.2996 1.69557 19.4586 1.97036C19.6208 2.24514 19.7019 2.55469 19.7019 2.899C19.7019 3.24331 19.6208 3.55286 19.4586 3.82765C19.2996 4.10244 19.0811 4.31763 18.803 4.47323C18.5283 4.62884 18.227 4.70664 17.8992 4.70664ZM17.8992 3.67867C18.1177 3.67867 18.2866 3.60915 18.4058 3.4701C18.5249 3.32774 18.5845 3.13737 18.5845 2.899C18.5845 2.65732 18.5249 2.46696 18.4058 2.32791C18.2866 2.18555 18.1177 2.11437 17.8992 2.11437C17.6774 2.11437 17.5069 2.18555 17.3877 2.32791C17.2685 2.46696 17.2089 2.65732 17.2089 2.899C17.2089 3.13737 17.2685 3.32774 17.3877 3.4701C17.5069 3.60915 17.6774 3.67867 17.8992 3.67867ZM27.2457 1.15593V3.4254C27.2457 3.84586 27.1348 4.16534 26.913 4.38385C26.6945 4.59904 26.3866 4.70664 25.9893 4.70664C25.5622 4.70664 25.2229 4.58911 24.9713 4.35405C24.7197 4.11899 24.5939 3.77633 24.5939 3.32608H25.6814C25.6814 3.46844 25.7046 3.56942 25.7509 3.62901C25.7973 3.68529 25.8602 3.71343 25.9397 3.71343C26.0059 3.71343 26.0572 3.69191 26.0936 3.64887C26.13 3.60583 26.1482 3.53134 26.1482 3.4254V1.15593H27.2457ZM33.517 2.03491V2.46696H34.6096V3.29629H33.517V3.79289H34.7585V4.67188H32.4146V1.15593H34.7585V2.03491H33.517ZM39.7676 2.90894C39.7676 2.56131 39.8371 2.25176 39.9762 1.98029C40.1185 1.70881 40.3205 1.49858 40.582 1.3496C40.8436 1.19731 41.1515 1.12117 41.5057 1.12117C41.8103 1.12117 42.0818 1.1791 42.3201 1.29498C42.5618 1.40754 42.7571 1.56811 42.9061 1.77668C43.0584 1.98525 43.1594 2.22859 43.209 2.50669H42.047C41.994 2.39081 41.9179 2.30143 41.8186 2.23852C41.7226 2.17231 41.6116 2.1392 41.4858 2.1392C41.3004 2.1392 41.1531 2.20873 41.0439 2.34777C40.9379 2.48682 40.8849 2.67388 40.8849 2.90894C40.8849 3.14399 40.9379 3.33105 41.0439 3.4701C41.1531 3.60915 41.3004 3.67867 41.4858 3.67867C41.6116 3.67867 41.7226 3.64722 41.8186 3.58432C41.9179 3.5181 41.994 3.42706 42.047 3.31118H43.209C43.1594 3.58928 43.0584 3.83262 42.9061 4.04119C42.7571 4.24976 42.5618 4.41199 42.3201 4.52786C42.0818 4.64042 41.8103 4.69671 41.5057 4.69671C41.1515 4.69671 40.8436 4.62221 40.582 4.47323C40.3205 4.32094 40.1185 4.10906 39.9762 3.83758C39.8371 3.56611 39.7676 3.25656 39.7676 2.90894ZM51.06 1.15593V2.02995H50.1264V4.67188H49.0239V2.02995H48.1002V1.15593H51.06Z" fill="#F4F4F4"/>
<path fill-rule="evenodd" clip-rule="evenodd" d="M16.6965 8.94531H27.1973L18.9627 12.3075L22.0042 12.5337H24.4858L18.4088 20.576V15.2036L18.4086 15.2027L18.4084 20.5765L14.8438 25.2939V25.2868V10.7038V10.6754H14.8439C14.8572 9.69876 15.5524 8.94577 16.6955 8.94531H16.6965ZM18.4084 20.5765L18.4088 20.576V25.2939H18.4082L18.4084 20.5765ZM24.4858 12.5337L27.1973 8.94531H27.266V8.94651C28.2623 8.98135 29.0589 9.77063 29.0589 10.7392C29.0589 11.7077 28.2623 12.497 27.266 12.5319V12.5337H24.4858Z" fill="#F4F4F4"/>
<path fill-rule="evenodd" clip-rule="evenodd" d="M1.85943 8.94212C0.831946 8.96908 0.0078125 9.76159 0.0078125 10.7353C0.0078125 11.709 0.831946 12.5015 1.85943 12.5284V12.5297H10.8779V12.5291C10.8839 12.5291 10.8899 12.5292 10.8959 12.5292C11.9777 12.5292 12.8546 11.726 12.8546 10.7353C12.8546 9.74455 11.9777 8.94141 10.8959 8.94141C10.8899 8.94141 10.8839 8.94143 10.8779 8.94148V8.94141H1.91354H1.85943V8.94212Z" fill="#F4F4F4"/>
<path fill-rule="evenodd" clip-rule="evenodd" d="M36.4531 28.0014C36.4408 28.0017 36.4284 28.0018 36.416 28.0018C35.4269 28.0018 34.625 27.1987 34.625 26.2079C34.625 25.2172 35.4269 24.4141 36.416 24.4141C36.4284 24.4141 36.4408 24.4142 36.4531 24.4144V24.4141H48.3824V24.4168C48.4147 24.415 48.4472 24.4141 48.48 24.4141C49.4399 24.4141 50.2181 25.2172 50.2181 26.2079C50.2181 27.1987 49.4399 28.0018 48.48 28.0018C48.4472 28.0018 48.4147 28.0009 48.3824 27.999V28.0024H36.4531V28.0014Z" fill="#1CB1D9"/>
<path fill-rule="evenodd" clip-rule="evenodd" d="M75.974 8.89217C76.5196 8.65614 77.2139 8.73149 77.7589 9.0482L77.76 9.04603L89.281 14.9177C90.9946 15.5355 95.3013 17.5311 94.9825 21.9006C94.976 21.99 94.9689 22.0765 94.9612 22.1601C94.9495 22.3538 94.9268 22.5445 94.8943 22.7322C94.8017 23.3635 94.6685 23.7756 94.5096 24.0218C94.252 24.6331 93.9045 25.2088 93.5146 25.7515C92.6924 26.8959 91.3169 27.3568 90.0294 27.687C88.7418 28.0173 87.3409 27.7486 86.1471 27.1214C84.9751 26.5057 83.5788 24.6545 83.0939 23.9514L83.0898 23.9539L75.2319 11.2718L75.2353 11.2697C75.2256 11.253 75.2163 11.2361 75.2071 11.219C74.7663 10.3939 75.1133 9.35363 75.974 8.89217ZM85.8346 22.2272L85.8382 22.225C85.8473 22.2385 85.8662 22.2688 85.8936 22.3125C86.1341 22.6963 87.0256 24.1191 87.5588 24.3992C88.1527 24.7112 88.9212 25.1027 89.5617 24.9383C90.2023 24.774 91.0497 24.3675 91.4588 23.7982C91.8678 23.2289 92.0676 22.581 92.0676 21.8538H92.0694C92.0272 21.6369 91.8425 20.8227 91.3208 20.0357C91.1396 19.7624 90.1694 19.2442 89.4289 18.8487L89.4289 18.8487L89.4287 18.8486C89.2604 18.7587 89.1039 18.6751 88.9712 18.6022L87.6267 17.882L81.0727 14.5417L85.8346 22.2272Z" fill="#F4F4F4"/>
<path fill-rule="evenodd" clip-rule="evenodd" d="M57.0567 0C58.0389 0 58.8364 0.760716 58.8476 1.70319H58.8671L58.8671 9.13924L58.8853 8.90181C59.079 10.6987 59.9965 12.219 62.0995 12.4434H67.9264H67.927H67.95V12.4437C68.2195 12.4495 68.5342 12.5561 68.783 12.8151C69.7304 13.8013 70.7433 16.113 71.4128 17.6411C71.4634 17.7566 71.5121 17.8676 71.5586 17.9733L74.9096 24.2986L74.8937 24.3072C75.328 25.1593 74.9901 26.2138 74.1282 26.6759C73.2562 27.1435 72.1779 26.8276 71.7199 25.9703C71.6452 25.8304 71.5916 25.6846 71.558 25.5367L67.4778 17.8278L67.729 18.4634C66.6789 16.4229 65.6253 16.224 64.6211 16.0345L64.6067 16.0318H61.7597C60.0209 16.4526 59.3102 16.9218 58.8671 19.4759L58.8671 25.6358H58.8459C58.8471 25.6627 58.8477 25.6897 58.8477 25.7169C58.8477 26.7077 58.0458 27.5108 57.0567 27.5108C56.0675 27.5108 55.2656 26.7077 55.2656 25.7169C55.2656 25.6278 55.2721 25.5401 55.2847 25.4545L55.2847 1.97532C55.2721 1.89302 55.2656 1.80883 55.2656 1.72318C55.2656 0.771493 56.0675 0 57.0567 0Z" fill="#F4F4F4"/>
</svg>
